<?xml version="1.0" encoding="utf-8"?>
<!-- Generator: Adobe Illustrator 18.1.0, SVG Export Plug-In . SVG Version: 6.00 Build 0)  -->
<svg version="1.1" id="Layer_1" xmlns="http://www.w3.org/2000/svg" xmlns:xlink="http://www.w3.org/1999/xlink"
     width="100%" height="100%" viewBox="595 200 10 200" xml:space="preserve">

<g>
    <path d="M-92,1224.1c1.1-0.7,2.2-1.2,3.2-2.1c58.9-51.5,117.8-103,176.7-154.5c88.2-77.1,176.5-154.2,264.7-231.3
        c47.3-41.4,94.7-82.7,142-124.1c0.9-0.8,1.8-1.5,2.9-2.5c2,2.2,3.9,4.2,6,6.5c-2.9,3.5-5.7,7-8.6,10.4
        c-81.3,98.1-162.7,196.3-244,294.4c-72.7,87.7-145.5,175.5-218.1,263.3c-2.3,2.8-4.6,4-8.3,3.9c-37.3-0.1-74.6-0.1-111.9-0.1
        c-1.5,0-3.1-0.1-4.6-0.2C-92,1266.7-92,1245.4-92,1224.1z"/>
    <path d="M1282-88c0.1,1.3,0.2,2.6,0.2,3.8c0,38.2,0,76.3,0.1,114.5c0,2.8-0.9,4.7-3,6.5c-66.1,56.3-132.1,112.6-198.1,168.9
        C974,297.1,867,388.3,759.9,479.6c-13.8,11.8-27.7,23.6-41.5,35.4c-0.9,0.7-1.8,1.4-2.3,1.9c-2.3-2-4.3-3.8-6.6-5.8
        c2.6-3.1,5.1-5.9,7.5-8.7c61.8-70.9,123.6-141.7,185.4-212.6c53.6-61.5,107.2-122.9,160.8-184.4c55.6-63.8,111.2-127.5,166.8-191.3
        c0.6-0.7,1.1-1.5,1.7-2.2C1248.4-88,1265.2-88,1282-88z"/>
    <path d="M-79.4-105c0.9,1.2,1.8,2.5,2.8,3.6c27.9,29.2,55.8,58.3,83.7,87.5C40.8,21.2,74.3,56.4,107.9,91.6
        c21.4,22.3,42.7,44.6,64.1,67c27.1,28.3,54.1,56.6,81.2,84.9c19.2,20.1,38.4,40.1,57.6,60.2c25.7,26.8,51.3,53.7,77,80.5
        c27.2,28.5,54.5,57,81.7,85.4c11.9,12.5,23.8,24.9,35.7,37.4c0.5,0.5,0.9,1.1,1.6,1.8c-2,1.8-4,3.5-6.1,5.4c-0.7-0.5-1.7-1.2-2.7-2
        c-118.8-93.7-237.6-187.4-356.4-281.1C62.9,169.2-15.7,107.1-94.4,45.1c-1.1-0.9-2.4-1.6-3.6-2.3c0-49.2,0-98.5,0-147.7
        C-91.8-105-85.6-105-79.4-105z"/>
    <path d="M-158,1009.7c1.1-0.3,2.3-0.5,3.3-1c51.2-25.7,102.3-51.4,153.5-77.1c48.6-24.4,97.2-48.8,145.7-73.1
        c53.6-26.9,107.3-53.9,160.9-80.8c46.6-23.4,93.1-46.8,139.7-70.1c12.4-6.2,24.8-12.4,37.5-18.8c3,4.2,5.9,8.5,9,12.9
        c-1.2,0.9-2.3,1.8-3.4,2.6c-62.7,46.2-125.3,92.4-188,138.6C218,903.6,135.7,964.2,53.5,1024.9c-67.2,49.6-134.5,99.1-201.7,148.7
        c-2.3,1.7-4.6,3.5-7,5.1c-0.8,0.6-1.8,0.9-2.8,1.3C-158,1123.2-158,1066.5-158,1009.7z"/>
    <path d="M115.9-135c0.6,1.1,1,2.3,1.7,3.3C161.9-65.9,206.2-0.1,250.5,65.8c25.3,37.6,50.5,75.1,75.8,112.7
        c40.9,60.8,81.8,121.5,122.6,182.3c28.2,42,56.5,84,84.7,125.9c0.2,0.3,0.4,0.7,0.8,1.4c-2.3,1.4-4.5,2.9-7,4.5
        c-1.6-1.7-3.1-3.2-4.6-4.8c-74.2-80.2-148.3-160.4-222.5-240.7C241,182.8,181.5,118.6,122.1,54.4C64.4-8,6.8-70.4-50.9-132.8
        c-0.7-0.7-1.4-1.5-2.1-2.2C3.3-135,59.6-135,115.9-135z"/>
    <path d="M1177-88c-1.8,2.3-3.5,4.7-5.3,7c-38.9,47.1-77.6,94.4-116.8,141.3c-56.9,68-114.1,135.8-171.3,203.6
        c-57.2,67.7-114.7,135.3-172.1,202.9c-6.8,8.1-13.7,16.1-20.5,24.1c-0.7,0.9-1.5,1.7-2.4,2.7c-3.1-1.9-6.1-3.8-9.4-5.8
        c0.7-1.3,1.4-2.4,2.1-3.6c28.5-44.8,57.1-89.7,85.6-134.5c44.6-70,89.1-140,133.7-209.9c47.8-75.1,95.7-150.2,143.5-225.4
        c0.5-0.8,1-1.6,1.6-2.3C1089.4-88,1133.2-88,1177-88z"/>
    <path d="M309.6-154c3.8,9.5,7.7,18.9,11.5,28.4C341.6-74.2,362-22.8,382.5,28.5c42.3,106.4,84.7,212.8,127,319.3
        c16.1,40.5,32.3,81.1,48.4,121.6c0.5,1.3,1,2.7,1.7,4.3c-3.1,1.2-6,2.3-9.1,3.5c-0.7-1.1-1.4-2-2-3
        c-48.9-79.9-97.9-159.9-146.8-239.8c-71-115.9-142-231.9-213-347.8c-7.7-12.5-15.3-25-23-37.6c-0.6-1-1.1-2.1-1.7-3.1
        C212.5-154,261.1-154,309.6-154z"/>
    <path d="M861-182c-0.4,1.4-0.6,2.9-1.1,4.3c-32.7,95.9-65.5,191.9-98.3,287.8C721.1,229,680.5,347.9,639.9,466.8
        c-0.4,1.3-1,2.5-1.5,3.9c-4.3-0.7-8.4-1.4-12.8-2.2c0.7-5.3,1.4-10.3,2.1-15.4c4.4-29.8,8.7-59.6,13.1-89.5
        c3.8-25.9,7.6-51.7,11.4-77.6c3.8-26.1,7.6-52.3,11.5-78.4c3.5-24,7.1-47.9,10.6-71.9c3.8-26.1,7.6-52.3,11.5-78.4
        c3.8-25.7,7.5-51.5,11.3-77.2c3.6-24.4,7.1-48.8,10.7-73.1c3.5-24,7-47.9,10.6-71.9c0.8-5.7,1.8-11.4,2.8-17.1
        C767.7-182,814.3-182,861-182z"/>
    <path d="M1036.7-146c-11.7,19.6-23.4,39.3-35.1,59c-56,94.2-112,188.4-168,282.6c-49.4,83.1-98.8,166.3-148.2,249.4
        c-6.1,10.3-12.2,20.6-18.3,30.8c-0.6,1-1.3,1.9-2,3c-3.7-1.4-7.2-2.6-11.2-4.1c0.5-1.3,0.9-2.4,1.4-3.6
        c15.4-37.3,30.8-74.6,46.1-112c47.3-114.8,94.7-229.7,142-344.5c21.9-53.2,43.8-106.3,65.7-159.5c0.1-0.4,0.3-0.7,0.4-1.1
        C951.8-146,994.2-146,1036.7-146z"/>
    <path d="M-171,35c1.2,0.8,2.5,1.6,3.7,2.5c113.2,87,226.4,174,339.6,261.1c102.2,78.5,204.3,157,306.5,235.6c1.5,1.1,3,2.3,4.7,3.7
        c-0.9,1.6-1.8,3.1-2.8,4.9c-1.3-0.7-2.5-1.2-3.6-1.8c-83.3-48.2-166.6-96.3-250-144.5C106.4,326.6-14.3,256.9-135,187.1
        c-10.7-6.2-21.3-12.3-32-18.5c-1.2-0.7-2.7-1.1-4-1.6C-171,123-171,79-171,35z"/>
    <path d="M482.1-188c0.3,2.9,0.5,5.8,0.9,8.6c5.9,37.8,11.9,75.6,17.8,113.5c4,25.6,8,51.3,12,76.9c4.8,30.7,9.6,61.4,14.5,92.1
        c4.5,29,9.1,58.1,13.6,87.2c4.2,27.1,8.5,54.3,12.8,81.4c4.8,31,9.7,61.9,14.5,92.9c4.3,27.3,8.6,54.5,12.8,81.8
        c1.1,7.1,2.2,14.2,3.3,21.6c-3.7,0.7-7.2,1.4-11,2.2c-0.6-1.5-1.2-2.8-1.6-4.2c-24.5-72.2-49-144.3-73.5-216.5
        c-27.4-80.8-54.8-161.7-82.2-242.5c-21.5-63.5-43.1-127-64.7-190.5c-0.5-1.4-0.7-2.9-1.1-4.4C394-188,438.1-188,482.1-188z"/>
    <path d="M655.5-172c-0.8,11.9-1.6,23.9-2.4,35.8c-1.5,21.7-3,43.4-4.5,65.2c-1.3,18.5-2.6,36.9-3.8,55.4c-1.3,18.3-2.5,36.7-3.8,55
        c-1.3,18.5-2.6,36.9-3.9,55.4c-1.2,17.9-2.4,35.8-3.7,53.8c-1.3,18.5-2.6,36.9-3.8,55.4c-1.5,21.5-2.9,42.9-4.4,64.4
        c-1.5,22-3.1,44-4.6,66c-1.2,17.8-2.4,35.6-3.6,53.4c-1.3,18.7-2.6,37.5-3.9,56.2c-0.5,7.6-1.1,15.2-1.6,22.8
        c-0.1,0.8-0.2,1.6-0.3,2.8c-3.8,0-7.5,0-11.6,0c-0.4-4-0.8-8.3-1.1-12.6c-1.6-19.3-3.1-38.5-4.6-57.8c-1.5-18.4-2.9-36.9-4.4-55.3
        c-1.5-18.6-3-37.1-4.5-55.7c-1.2-15.3-2.4-30.7-3.7-46c-1.5-18.7-3-37.4-4.6-56.1c-1.2-15.5-2.5-30.9-3.7-46.4
        c-1.5-18.8-3.1-37.7-4.6-56.5c-1.5-18.6-2.9-37.2-4.4-55.7c-1.5-18.3-3-36.6-4.5-54.9c-1.5-18.6-3-37.2-4.5-55.7
        c-1.5-18.6-3-37.2-4.5-55.7c-0.8-9.5-1.5-19-2.3-28.5c-0.1-1.5,0-3-0.1-4.5C583.9-172,619.7-172,655.5-172z"/>
    <path d="M-205.8,836.7c5.9-1.3,11.8-2.5,17.6-3.9c84.5-20.4,169-40.8,253.5-61.2c67.4-16.3,134.7-32.6,202.1-48.8
        c67.7-16.3,135.3-32.6,203-48.9c1.2-0.3,2.5-0.5,3.9-0.8c1.3,2.5,2.5,4.9,4,7.7c-1.5,0.7-2.8,1.3-4.2,1.9
        c-43,17.2-86,34.5-128.9,51.7c-103.9,41.7-207.7,83.4-311.6,125c-77.5,31.1-154.9,62.1-232.4,93.2c-1.8,0.7-3.8,1.3-5.7,1.9
        C-205,915.3-205.4,876-205.8,836.7z"/>
    <path d="M-183.3,379.4c98.1,33.9,196.1,67.7,294.2,101.6c115.2,39.8,230.5,79.5,345.7,119.3c1.4,0.5,2.9,0.9,4.3,1.6
        c0.6,0.3,0.8,1.1,1.6,2.3c-2.1-0.2-3.4-0.3-4.7-0.5c-45.4-8.8-90.8-17.7-136.1-26.5c-52.5-10.2-105-20.4-157.6-30.6
        c-51.1-9.9-102.3-20-153.4-29.9c-51.3-10-102.6-19.9-153.9-29.8c-13.9-2.7-27.7-5.4-41.5-8.1C-184.3,445.6-183.8,412.5-183.3,379.4
        z"/>
    <path d="M-184.8,211c8.3,4.5,16.7,9,25,13.5c125.8,69.1,251.7,138.3,377.5,207.4c82.5,45.4,165.1,90.7,247.6,136.1
        c1.1,0.6,2.2,1.2,3.7,2.1c-0.6,2-1.2,4.1-1.9,6.5c-1.9-0.7-3.6-1.3-5.3-2c-90.1-36.7-180.3-73.4-270.4-110.1
        C67.4,414-56.6,363.6-180.5,313.1c-1.4-0.6-2.9-0.9-4.4-1.3C-184.8,278.2-184.8,244.6-184.8,211z"/>
    <path d="M-184.8,667.8c14.8-0.3,29.6-0.6,44.3-0.9c21.9-0.5,43.8-0.9,65.7-1.4c12.3-0.2,24.6-0.3,36.8-0.5c29-0.5,58-1,87-1.5
        c16.3-0.3,32.6-0.6,49-0.9c30-0.6,60-1.2,90-1.8c14.9-0.3,29.8-0.5,44.8-0.7c29-0.5,58-1,87-1.5c16.3-0.3,32.6-0.6,49-0.9
        c23.7-0.5,47.4-0.9,71.1-1.4c8.9-0.2,17.8-0.4,26.8-0.6c0.4,0,0.8,0.1,1.5,0.3c0.4,1.3,0.9,2.6,1.6,4.5c-4.9,0.8-9.4,1.6-13.9,2.4
        c-38.9,6.3-77.9,12.6-116.8,18.8c-31.6,5.1-63.3,10.1-95,15.2c-33.3,5.4-66.6,10.8-99.9,16.2c-35,5.6-69.9,11.2-104.9,16.8
        c-28.1,4.5-56.1,9.1-84.2,13.6c-26.4,4.3-52.8,8.5-79.3,12.7c-20.2,3.3-40.4,6.6-60.7,9.8C-184.8,733.3-184.8,700.5-184.8,667.8z"
        />
    <path d="M-186,537.9c5.4,0.6,10.8,1.1,16.2,1.9c25.2,3.6,50.4,7.2,75.7,10.9c26.6,3.8,53.2,7.7,79.8,11.6
        c24.8,3.6,49.6,7.1,74.4,10.7c26.6,3.8,53.2,7.7,79.8,11.6c24.8,3.6,49.6,7.1,74.4,10.7c26.6,3.8,53.2,7.7,79.8,11.6
        c26.7,3.9,53.5,7.6,80.3,11.5c26.5,3.8,52.9,7.7,79.4,11.5c2.5,0.4,5,0.8,7.5,1c2,0.2,2.7,1.1,2.2,3.2c-2,0-4.1,0-6.2,0
        c-15.3-0.1-30.6-0.3-45.9-0.4c-26.9-0.2-53.9-0.5-80.8-0.7c-26.5-0.2-53-0.5-79.5-0.7c-26.9-0.3-53.9-0.5-80.8-0.8
        c-26.5-0.2-53-0.5-79.5-0.7c-32.1-0.3-64.2-0.6-96.4-0.9c-26.4-0.2-52.7-0.5-79.1-0.7c-32.1-0.3-64.2-0.6-96.4-0.9
        c-1.7,0-3.3-0.3-5-0.5C-186,597.7-186,567.8-186,537.9z"/>
    <path d="M1308.2,1302c-1.6,0-2.8,0-4,0c-32.5,0-65,0-97.5,0.1c-2.7,0-4.4-0.8-6.2-2.8c-72.3-84.4-144.7-168.7-217-253
        c-58.4-68.1-116.9-136.1-175.3-204.2c-33.7-39.2-67.3-78.4-100.9-117.6c-0.6-0.7-1.2-1.5-2.1-2.6c1.8-1.8,3.5-3.5,5.5-5.5
        c1,0.8,2,1.4,2.9,2.2c37.3,30.9,74.5,61.8,111.7,92.7c67.6,56.1,135.1,112.1,202.7,168.2c67.7,56.1,135.3,112.3,203,168.4
        c25,20.7,50,41.5,75,62.2c1.6,1.3,2.5,2.6,2.5,4.8c-0.1,28.1,0,56.1-0.1,84.2C1308.4,1299.8,1308.3,1300.7,1308.2,1302z"/>
    <path d="M1135,1324c-47.4,0-93.9,0-140.6,0c-104.3-194.8-208.6-389.6-312.9-584.5c2.5-1.6,4.9-3.1,7.5-4.8
        C837.5,931,986,1127.2,1135,1324z"/>
    <path d="M733.4,541.9c-1.6-2.6-3-4.9-4.5-7.4C923.3,375.6,1117.5,216.9,1311.9,58c1.1,1.5,0.7,3,0.7,4.4c0,33.3,0,66.6,0,99.9
        c0,5.1-0.1,10.2,0.1,15.2c0.1,2.6-0.8,4-3,5.3c-25.1,15.6-50.2,31.2-75.3,46.9c-76.4,47.6-152.8,95.3-229.3,142.9
        C916.1,428,827.2,483.5,738.3,538.9C736.8,539.9,735.2,540.8,733.4,541.9z"/>
    <path d="M723.6,700.8c0.7-1,1.4-1.9,2.2-3c200.4,106.3,400.7,212.4,601.2,318.7c0,42.5,0,84.9,0,127.4c-0.1,0-0.2,0.1-0.3,0.1
        c-0.1,0-0.3,0.1-0.3,0C1126,996.9,925.8,849.7,725.5,702.4C724.9,702,724.4,701.4,723.6,700.8z"/>
    <path d="M519.1,730.2c2.7,1.9,5.3,3.7,8.1,5.7C419.5,928,311.9,1120,204.3,1312c-39.8,0-79.5,0-119.3,0
        C86.1,1309.3,514.7,735,519.1,730.2z"/>
    <path d="M498.7,1343c-34.5,0-68.7,0-103.5,0c57.5-196.4,115-392.5,172.5-588.8c4,0.9,7.6,1.8,11.2,2.6
        C579.6,760.4,499.9,1337.7,498.7,1343z"/>
    <path d="M653.8,751.9c2.9-1.1,5.5-2.1,8.1-3C751,942.3,839.9,1135.5,929,1329c-33.2,0-66,0-99.4,0
        C771,1136.8,712.5,944.4,653.8,751.9z"/>
    <path d="M335.9,1348c-33.4,0-66.3,0-99.9,0c103-201,205.8-401.5,308.6-602.1c3.2,1.3,6,2.5,8.8,3.7c0.3,0.1,0.6,0.5,1.1,0.9
        C481.7,949.5,408.9,1148.7,335.9,1348z"/>
    <path d="M644.4,1340c-30.4,0-60.2,0-90.1,0c-0.1-0.2-0.2-0.3-0.3-0.4c-0.1-0.1-0.1-0.2-0.1-0.3c0-1.2,0-2.4,0.1-3.6
        c14.2-191.9,28.4-383.8,42.6-575.9c3.7-0.8,7.2,0.1,11,0C619.9,953.4,632.1,1146.5,644.4,1340z"/>
    <path d="M624.8,758.2c3.9-0.6,7.2-1.1,10.9-1.6C687.2,953.8,738.6,1150.7,790,1348c-32.4,0-64.4,0-96.9,0
        C670.4,1151.6,647.6,955.2,624.8,758.2z"/>
    <path d="M1327,218c0,31.3,0,62,0,93.1C1133,396.3,938.8,481.6,744.5,567c-0.6-1.7-1.1-2.9-1.7-4.5C937.5,447.7,1132,333,1327,218z"
        />
    <path d="M1392,888.6c0,31.2,0,62,0,93.4c-219.5-98.2-437.5-198.6-655.4-299.1c-0.5-0.2-1.1-0.4-1.6-0.6c1.9-2.5,3.3-1.5,4.7-1
        c9.9,3.1,19.9,6.3,29.8,9.4c124.3,39.5,248.7,79,373,118.6c81.5,25.9,163,51.8,244.5,77.7C1388.7,887.4,1390.3,888,1392,888.6z"/>
    <path d="M750.2,596c1.1-1,1.4-1.4,1.8-1.5c189.9-78.8,379.7-157.5,570-236.5c0,29.6,0,58.8,0,88.3c-189.8,50-379.6,100-569.5,149.9
        C752.1,596.3,751.6,596.2,750.2,596z"/>
    <path d="M1392,732.6c0,31.5,0,62.6,0,94.4c-215.6-55-431-109.8-646.3-164.7c0.1-0.3,0.1-0.6,0.2-1
        C961.2,685.1,1176.5,708.8,1392,732.6z"/>
    <path d="M1377,472.2c0,26.8,0,53.3,0,80.4c-208.3,24.6-416.6,49.2-624.9,73.9c-1.2-2.2-0.1-3,1.6-3.4c3.9-1,7.8-1.9,11.8-2.8
        c79.5-19.3,159-38.6,238.5-57.8c63.3-15.3,126.6-30.6,189.9-46c59.9-14.5,119.8-29,179.7-43.5
        C1374.5,472.6,1375.6,472.5,1377,472.2z"/>
    <path d="M1392,600.9c0,27.8,0,55,0,82.8c-212.8-12.9-425.3-25.7-637.8-38.6c0-0.2,0-0.3,0-0.5c7.9-0.6,15.9-1.2,23.8-1.8
        c23.6-1.6,47.2-3.3,70.8-4.9c18.3-1.2,36.7-2.4,55-3.7c21.9-1.5,43.8-3.1,65.7-4.6c17.3-1.2,34.7-2.4,52.1-3.6
        c19.1-1.3,38.1-2.6,57.2-3.9c13.8-0.9,27.6-1.8,41.4-2.8c18.5-1.3,37-2.6,55.5-3.8c17.5-1.2,35-2.4,52.5-3.6
        c18.9-1.3,37.8-2.6,56.7-3.9c13.7-0.9,27.3-1.8,41-2.8c18.6-1.3,37.3-2.6,55.9-3.9C1385,601.2,1388.3,601.1,1392,600.9z"/>
<animateTransform attributeName="transform" type="rotate"
        from="0 600 600" to="360 600 600" dur="600s" repeatDur="indefinite"/>
</g>
</svg>
